<svg xmlns="http://www.w3.org/2000/svg" width="42" height="42" viewBox="0 0 42 42">
    <g fill="none" fill-rule="evenodd">
        <path stroke="#333" d="M.5 21c0-5.66 2.295-10.786 6.004-14.496C10.214 2.794 15.34.5 21 .5c5.66 0 10.786 2.295 14.496 6.004C39.206 10.214 41.5 15.34 41.5 21c0 5.66-2.295 10.786-6.004 14.496C31.786 39.206 26.66 41.5 21 41.5c-5.66 0-10.786-2.295-14.496-6.004C2.794 31.786.5 26.66.5 21z" opacity=".2"/>
        <path fill="#000" fill-opacity=".5" d="M14.497 19c.597 0 1.136-.323 1.367-.82.954-2.049 3.196-3.493 5.81-3.493 1.44 0 2.762.446 3.82 1.184l-.83.116c-.283.04-.503.243-.542.499-.038.256.115.505.376.61l4.565 1.852c.2.081.432.066.616-.04.184-.108.296-.292.297-.49L30 13.884c.002-.258-.185-.486-.458-.561-.274-.075-.57.02-.729.235l-.629.852C26.507 12.92 24.208 12 21.674 12c-3.843 0-7.147 2.116-8.556 5.124-.195.417-.146.894.131 1.271.277.378.746.605 1.248.605zM29.751 23.605c-.277-.378-.746-.605-1.248-.605-.597 0-1.136.323-1.367.82-.954 2.049-3.196 3.493-5.81 3.493-1.44 0-2.762-.446-3.82-1.184l.83-.116c.283-.04.503-.242.542-.499.038-.256-.115-.505-.376-.61l-4.565-1.852c-.2-.081-.432-.066-.616.04-.184.108-.296.292-.297.49L13 28.116c-.002.258.185.486.458.561.274.075.57-.02.729-.235l.629-.853c1.677 1.49 3.976 2.41 6.51 2.41 3.843 0 7.146-2.116 8.556-5.124.195-.417.146-.894-.131-1.271z"/>
    </g>
</svg>