<?xml version="1.0" encoding="utf-8"?>
<!-- Generator: Adobe Illustrator 24.2.3, SVG Export Plug-In . SVG Version: 6.00 Build 0)  -->
<svg version="1.1" id="Calque_1" xmlns="http://www.w3.org/2000/svg" xmlns:xlink="http://www.w3.org/1999/xlink" x="0px" y="0px"
	 viewBox="0 0 397.2 396.1" style="enable-background:new 0 0 397.2 396.1;" xml:space="preserve">
<style type="text/css">
	.st0{fill:#444444;}
	.st1{fill:none;stroke:#444444;stroke-width:16;stroke-linecap:round;stroke-miterlimit:10;}
</style>
<g>
	<path class="st0" d="M340.1,15.6c22.6,0,41,18.4,41,41v282.9c0,22.6-18.4,41-41,41H57.1c-22.6,0-41-18.4-41-41V56.6
		c0-22.6,18.4-41,41-41H340.1 M340.1-0.4H57.1c-31.5,0-57,25.5-57,57v282.9c0,31.5,25.5,57,57,57h282.9c31.5,0,57-25.5,57-57V56.6
		C397,25.1,371.5-0.4,340.1-0.4L340.1-0.4z"/>
</g>
<line class="st1" x1="198.6" y1="84.7" x2="198.6" y2="311.4"/>
<line class="st1" x1="85.2" y1="198.1" x2="312" y2="198.1"/>
</svg>
