<?xml version="1.0" encoding="utf-8"?>
<!-- Generator: Adobe Illustrator 24.2.3, SVG Export Plug-In . SVG Version: 6.00 Build 0)  -->
<svg version="1.1" id="Calque_1" xmlns="http://www.w3.org/2000/svg" xmlns:xlink="http://www.w3.org/1999/xlink" x="0px" y="0px"
	 viewBox="0 0 453.5 226.8" style="enable-background:new 0 0 453.5 226.8;" xml:space="preserve">
<style type="text/css">
	.st0{fill:#E9E9ED;}
	.st1{fill:#BCBCC5;}
	.st2{fill:#808080;}
</style>
<g>
	<path class="st0" d="M113.4,222.8C53.1,222.8,4,173.7,4,113.4S53.1,4,113.4,4h226.8c60.3,0,109.4,49.1,109.4,109.4
		s-49.1,109.4-109.4,109.4H113.4z"/>
	<path class="st1" d="M340.2,8c58.1,0,105.4,47.3,105.4,105.4s-47.3,105.4-105.4,105.4H113.4C55.3,218.8,8,171.5,8,113.4
		S55.3,8,113.4,8H340.2 M340.2,0H113.4C50.8,0,0,50.8,0,113.4C0,176,50.8,226.8,113.4,226.8h226.8c62.6,0,113.4-50.8,113.4-113.4
		C453.5,50.8,402.8,0,340.2,0L340.2,0z"/>
</g>
<circle class="st2" cx="113.4" cy="113.4" r="113.4"/>
</svg>
