<?xml version="1.0" encoding="utf-8"?>
<!-- Generator: Adobe Illustrator 24.2.3, SVG Export Plug-In . SVG Version: 6.00 Build 0)  -->
<svg version="1.1" id="Calque_1" xmlns="http://www.w3.org/2000/svg" xmlns:xlink="http://www.w3.org/1999/xlink" x="0px" y="0px"
	 viewBox="0 0 869.3 1106.5" style="enable-background:new 0 0 869.3 1106.5;" xml:space="preserve">
<style type="text/css">
	.st0{fill:#B21212;}
</style>
<path class="st0" d="M44.4,257.3L98.2,1084c0.8,12.6,11.4,22.5,24,22.5h624.8c12.6,0,23.2-9.9,24-22.5l53.8-826.8H44.4z M260.2,1012
	c-16.9,1-31.4-11.9-32.5-28.8l-35.9-600.4c-0.5-8.2,2.2-16.1,7.7-22.2c5.4-6.1,12.9-9.8,21.1-10.3c0.7,0,1.3-0.1,1.9-0.1
	c16.2,0,29.6,12.7,30.6,28.9L289,979.6C290,996.5,277.1,1011,260.2,1012z M465.3,982c0,16.9-13.8,30.7-30.7,30.7S404,998.9,404,982
	V380.5c0-16.9,13.8-30.7,30.7-30.7s30.7,13.8,30.7,30.7V982z M677.4,382.9l-35.9,600.4c-1,16.9-15.6,29.8-32.5,28.8
	c-16.9-1-29.8-15.6-28.8-32.5l35.9-600.4c1-16.2,14.4-28.9,30.6-28.9c0.6,0,1.2,0,1.9,0.1c8.2,0.5,15.7,4.1,21.1,10.3
	C675.2,366.8,677.9,374.7,677.4,382.9z"/>
<path class="st0" d="M869.3,224.1c0,9-7.3,16.3-16.3,16.3H16.3c-9,0-16.3-7.3-16.3-16.3V109.9c0-9,7.3-16.3,16.3-16.3h187.9
	c0,0,0.1,0,0.1,0H665c0,0,0,0,0,0c0,0,0,0,0,0h187.9c9,0,16.3,7.3,16.3,16.3V224.1z"/>
<path class="st0" d="M241.4,19.3C246.4,7.6,257.8,0,270.6,0h328.1c12.8,0,24.2,7.6,29.2,19.3l24.4,57.4H217L241.4,19.3z"/>
</svg>
