<?xml version="1.0" encoding="utf-8"?>
<!-- Generator: Adobe Illustrator 24.2.3, SVG Export Plug-In . SVG Version: 6.00 Build 0)  -->
<svg version="1.1" id="Calque_1" xmlns="http://www.w3.org/2000/svg" xmlns:xlink="http://www.w3.org/1999/xlink" x="0px" y="0px"
	 viewBox="0 0 397.2 396.1" style="enable-background:new 0 0 397.2 396.1;" xml:space="preserve">
<style type="text/css">
	.st0{fill:#444444;}
</style>
<path class="st0" d="M224.1,198.1L391.5,30.7c7-7,7-18.4,0-25.4s-18.4-7-25.4,0L198.6,172.7L31.2,5.3c-7-7-18.4-7-25.4,0
	c-7,7-7,18.4,0,25.4l167.4,167.4L5.8,365.5c-7,7-7,18.4,0,25.4c3.5,3.5,8.1,5.3,12.7,5.3c4.6,0,9.2-1.8,12.7-5.3l167.4-167.4
	l167.3,167.3c3.5,3.5,8.1,5.3,12.7,5.3s9.2-1.8,12.7-5.3c7-7,7-18.4,0-25.4L224.1,198.1z"/>
</svg>
