<?xml version="1.0" encoding="utf-8"?>
<!-- Generator: Adobe Illustrator 24.2.3, SVG Export Plug-In . SVG Version: 6.00 Build 0)  -->
<svg version="1.1" id="Calque_1" xmlns="http://www.w3.org/2000/svg" xmlns:xlink="http://www.w3.org/1999/xlink" x="0px" y="0px"
	 viewBox="0 0 40 40" style="enable-background:new 0 0 40 40;" xml:space="preserve">
<style type="text/css">
	.st0{fill:#8F8F9D;}
</style>
<path class="st0" d="M31.4,11.4L22.8,20l8.6,8.6c0.8,0.8,0.8,2.1,0,2.8c-0.7,0.8-1.9,0.8-2.7,0.1c0,0-0.1-0.1-0.1-0.1L20,22.8
	l-8.6,8.6c-0.7,0.8-1.9,0.8-2.7,0.1c0,0-0.1-0.1-0.1-0.1c-0.8-0.7-0.8-1.9-0.1-2.7c0,0,0.1-0.1,0.1-0.1l8.6-8.6l-8.6-8.6
	c-0.8-0.7-0.8-1.9-0.1-2.7c0,0,0.1-0.1,0.1-0.1c0.7-0.8,1.9-0.8,2.7-0.1c0,0,0.1,0.1,0.1,0.1l8.6,8.6l8.6-8.6
	c0.7-0.8,1.9-0.8,2.7-0.1c0,0,0.1,0.1,0.1,0.1C32.2,9.3,32.2,10.7,31.4,11.4z"/>
</svg>
