<?xml version="1.0" encoding="utf-8"?>
<!-- Generator: Adobe Illustrator 24.2.3, SVG Export Plug-In . SVG Version: 6.00 Build 0)  -->
<svg version="1.1" id="Calque_2" xmlns="http://www.w3.org/2000/svg" xmlns:xlink="http://www.w3.org/1999/xlink" x="0px" y="0px"
	 viewBox="0 0 838.9 1191.8" style="enable-background:new 0 0 838.9 1191.8;" xml:space="preserve">
<path d="M812.1,354.8l-328-328c0,0,0,0-0.1-0.1c0,0,0,0,0,0c0,0,0,0-0.1-0.1l0,0c-0.2-0.2-0.5-0.5-0.7-0.7c-0.3-0.3-0.6-0.6-0.8-0.8
	c-0.2-0.2-0.5-0.4-0.7-0.7c-0.3-0.3-0.6-0.6-0.9-0.8c-0.2-0.2-0.5-0.4-0.7-0.6c-0.3-0.3-0.6-0.5-0.9-0.8c-0.2-0.2-0.5-0.4-0.7-0.6
	c-0.3-0.3-0.6-0.5-0.9-0.8c-0.2-0.2-0.5-0.4-0.7-0.6c-0.3-0.3-0.6-0.5-1-0.8c-0.3-0.2-0.5-0.4-0.8-0.6c-0.3-0.2-0.6-0.5-1-0.7
	c-0.3-0.2-0.5-0.4-0.8-0.6c-0.3-0.2-0.7-0.5-1-0.7c-0.3-0.2-0.5-0.4-0.8-0.6c-0.3-0.2-0.7-0.5-1-0.7c-0.3-0.2-0.6-0.4-0.9-0.6
	c-0.3-0.2-0.6-0.4-1-0.6c-0.3-0.2-0.6-0.4-0.9-0.5c-0.3-0.2-0.7-0.4-1-0.6c-0.3-0.2-0.6-0.3-0.9-0.5c-0.3-0.2-0.7-0.4-1-0.6
	c-0.3-0.2-0.6-0.3-0.9-0.5c-0.3-0.2-0.7-0.4-1-0.6c-0.3-0.2-0.7-0.4-1-0.5c-0.3-0.2-0.6-0.3-0.9-0.5c-0.4-0.2-0.7-0.4-1.1-0.5
	c-0.3-0.1-0.6-0.3-0.9-0.4c-0.4-0.2-0.7-0.3-1.1-0.5c-0.3-0.1-0.6-0.3-0.9-0.4c-0.4-0.2-0.7-0.3-1.1-0.5c-0.3-0.1-0.6-0.3-0.9-0.4
	c-0.4-0.2-0.8-0.3-1.3-0.5c-0.3-0.1-0.5-0.2-0.8-0.3c-0.5-0.2-0.9-0.3-1.4-0.5c-0.2-0.1-0.5-0.2-0.7-0.3c-0.4-0.2-0.9-0.3-1.3-0.5
	c-0.3-0.1-0.5-0.2-0.8-0.3c-0.5-0.2-1-0.3-1.4-0.5c-0.2-0.1-0.5-0.2-0.7-0.2c-0.5-0.2-1-0.3-1.5-0.5c-0.2-0.1-0.4-0.1-0.6-0.2
	c-0.5-0.2-1.1-0.3-1.6-0.4c-0.2,0-0.4-0.1-0.5-0.1c-0.6-0.1-1.1-0.3-1.7-0.4c-0.2,0-0.3-0.1-0.5-0.1c-0.6-0.1-1.2-0.3-1.7-0.4
	c-0.2,0-0.3-0.1-0.5-0.1c-0.6-0.1-1.3-0.2-1.9-0.4c-0.1,0-0.2,0-0.3-0.1c-0.7-0.1-1.4-0.2-2.1-0.4c0,0-0.1,0-0.1,0
	c-0.7-0.1-1.3-0.2-2-0.3c-0.1,0-0.2,0-0.3,0c-3.8-0.5-7.7-0.7-11.6-0.7c0,0,0,0,0,0s0,0,0,0c-3.9,0-7.8,0.2-11.6,0.7
	c-0.1,0-0.1,0-0.2,0c-0.7,0.1-1.4,0.2-2.1,0.3c0,0,0,0-0.1,0c-0.7,0.1-1.5,0.2-2.2,0.4c-0.1,0-0.2,0-0.2,0c-0.7,0.1-1.3,0.2-2,0.4
	c-0.1,0-0.3,0.1-0.4,0.1c-0.6,0.1-1.2,0.3-1.8,0.4c-0.1,0-0.3,0.1-0.4,0.1c-0.6,0.1-1.2,0.3-1.8,0.4c-0.1,0-0.3,0.1-0.4,0.1
	c-0.6,0.2-1.2,0.3-1.8,0.5c-0.2,0-0.3,0.1-0.5,0.1c-0.6,0.2-1.1,0.3-1.7,0.5c-0.2,0.1-0.4,0.1-0.5,0.2c-0.5,0.2-1.1,0.3-1.6,0.5
	c-0.2,0.1-0.4,0.2-0.6,0.2c-0.5,0.2-1,0.3-1.5,0.5c-0.2,0.1-0.4,0.1-0.6,0.2c-0.5,0.2-1,0.4-1.5,0.6c-0.2,0.1-0.4,0.2-0.6,0.2
	c-0.5,0.2-1,0.4-1.5,0.6c-0.2,0.1-0.5,0.2-0.7,0.3c-0.4,0.2-0.9,0.4-1.3,0.6c-0.2,0.1-0.5,0.2-0.7,0.3c-0.4,0.2-0.9,0.4-1.3,0.6
	c-0.2,0.1-0.5,0.2-0.7,0.4c-0.4,0.2-0.8,0.4-1.2,0.6c-0.3,0.1-0.5,0.3-0.8,0.4c-0.4,0.2-0.8,0.4-1.2,0.6c-0.3,0.1-0.5,0.3-0.8,0.4
	c-0.4,0.2-0.8,0.4-1.2,0.6c-0.3,0.2-0.5,0.3-0.8,0.5c-0.4,0.2-0.7,0.4-1.1,0.6c-0.3,0.2-0.5,0.3-0.8,0.5c-0.4,0.2-0.7,0.4-1.1,0.7
	c-0.3,0.2-0.5,0.3-0.8,0.5c-0.4,0.2-0.7,0.5-1.1,0.7c-0.3,0.2-0.5,0.4-0.8,0.5c-0.3,0.2-0.7,0.5-1,0.7c-0.3,0.2-0.5,0.4-0.8,0.5
	c-0.3,0.2-0.7,0.5-1,0.7c-0.3,0.2-0.5,0.4-0.8,0.6c-0.3,0.2-0.7,0.5-1,0.7c-0.3,0.2-0.5,0.4-0.8,0.6c-0.3,0.3-0.6,0.5-0.9,0.8
	c-0.2,0.2-0.5,0.4-0.7,0.6c-0.3,0.3-0.6,0.5-1,0.8c-0.2,0.2-0.4,0.4-0.7,0.6c-0.3,0.3-0.6,0.6-1,0.9c-0.2,0.2-0.4,0.4-0.7,0.6
	c-0.3,0.3-0.6,0.6-0.9,0.9c-0.2,0.2-0.4,0.4-0.6,0.6c-0.3,0.3-0.6,0.6-0.9,0.9l0,0c0,0-0.1,0.1-0.1,0.1l-328,328
	C10.2,371.3,0,394.2,0,419.4c0,50.4,40.9,91.3,91.3,91.3c25.3,0,48.1-10.2,64.6-26.8l172.1-172.1v788.5c0,0,0,0.1,0,0.1
	c0,50.4,40.9,91.3,91.3,91.3c0,0,0,0,0,0s0,0,0,0c50.4,0,91.3-40.9,91.3-91.3c0,0,0-0.1,0-0.1V311.9L682.9,484
	c16.5,16.6,39.4,26.8,64.6,26.8c50.4,0,91.3-40.9,91.3-91.3C838.9,394.2,828.6,371.3,812.1,354.8z"/>
</svg>
