<?xml version="1.0" encoding="utf-8"?>
<!-- Generator: Adobe Illustrator 24.2.3, SVG Export Plug-In . SVG Version: 6.00 Build 0)  -->
<svg version="1.1" id="Calque_1" xmlns="http://www.w3.org/2000/svg" xmlns:xlink="http://www.w3.org/1999/xlink" x="0px" y="0px"
	 viewBox="0 0 1318.1 722.8" style="enable-background:new 0 0 1318.1 722.8;" xml:space="preserve">
<style type="text/css">
	.st0{fill:none;stroke:#000000;stroke-width:8;stroke-linecap:round;stroke-linejoin:round;stroke-miterlimit:10;}
</style>
<g>
	<polyline class="st0" points="318.9,432.3 318.9,715.7 545.7,659.1 545.7,446.5 	"/>
	<polygon class="st0" points="545.7,375.6 318.9,318.9 92.1,375.6 318.9,432.3 	"/>
	<polygon class="st0" points="92.1,375.6 7.1,396.9 233.9,453.5 318.9,432.3 	"/>
	<polygon class="st0" points="318.9,318.9 403.9,297.6 630.7,354.3 545.7,375.6 	"/>
	<polygon class="st0" points="92.1,375.6 7.1,354.3 233.9,297.6 318.9,318.9 	"/>
	<polygon class="st0" points="318.9,432.3 545.7,375.6 630.7,396.9 403.9,453.5 	"/>
	<polyline class="st0" points="92.1,446.5 92.1,659.1 318.9,715.7 318.9,432.3 	"/>
</g>
<path class="st0" d="M467.7,59.9c-82.2,0-148.8,76.1-148.8,170.1c0,8.5,0.6,16.9,1.6,25.1c10.6-74.3,72.5-131.4,147.2-131.4v53.4
	l106.3-85l-106.3-85V59.9z"/>
<path class="st0" d="M1031.4,240.9c0-82.2-76.1-148.8-170.1-148.8c-8.5,0-16.9,0.6-25.1,1.6c74.3,10.6,131.4,72.5,131.4,147.2h-53.4
	l85,106.3l85-106.3H1031.4z"/>
<g>
	<polyline class="st0" points="999.2,432.3 999.2,715.7 1226,659.1 1226,446.5 	"/>
	<polygon class="st0" points="772.4,375.6 687.4,396.9 914.2,453.5 999.2,432.3 	"/>
	<polygon class="st0" points="999.2,432.3 1226,375.6 1311,396.9 1084.3,453.5 	"/>
	<polyline class="st0" points="772.4,446.5 772.4,659.1 999.2,715.7 999.2,432.3 	"/>
	<polyline class="st0" points="914.2,297.6 687.4,354.3 772.4,375.6 	"/>
	<polyline class="st0" points="1226,375.6 1311,354.3 1084.3,297.6 	"/>
	<polyline class="st0" points="942.5,333.1 772.4,375.6 999.2,432.3 1226,375.6 1055.9,333.1 	"/>
</g>
</svg>
