<?xml version="1.0" encoding="utf-8"?>
<!-- Generator: Adobe Illustrator 24.2.3, SVG Export Plug-In . SVG Version: 6.00 Build 0)  -->
<svg version="1.1" id="Calque_3" xmlns="http://www.w3.org/2000/svg" xmlns:xlink="http://www.w3.org/1999/xlink" x="0px" y="0px"
	 viewBox="0 0 941.3 936.9" style="enable-background:new 0 0 941.3 936.9;" xml:space="preserve">
<style type="text/css">
	.st0{fill:#2D2D2D;}
</style>
<path class="st0" d="M307,816.1h327.2c7.5,0,13.5-6,13.5-13.5s-6-13.5-13.5-13.5H307c-7.5,0-13.5,6-13.5,13.5S299.5,816.1,307,816.1
	z"/>
<path class="st0" d="M307,725.1h327.2c7.5,0,13.5-6,13.5-13.5s-6-13.5-13.5-13.5H307c-7.5,0-13.5,6-13.5,13.5S299.5,725.1,307,725.1
	z"/>
<path class="st0" d="M307,634.2h327.2c7.5,0,13.5-6,13.5-13.5s-6-13.5-13.5-13.5H307c-7.5,0-13.5,6-13.5,13.5S299.5,634.2,307,634.2
	z"/>
<path class="st0" d="M905.4,199.8H754.6V13.5c0-7.5-6-13.5-13.5-13.5H319.2c-0.4,0-0.9,0-1.3,0.1c-0.2,0-0.4,0.1-0.6,0.1
	c-0.2,0-0.5,0.1-0.7,0.1c-0.2,0-0.4,0.1-0.7,0.2c-0.2,0.1-0.4,0.1-0.6,0.2c-0.2,0.1-0.4,0.1-0.6,0.2c-0.2,0.1-0.4,0.1-0.6,0.2
	c-0.2,0.1-0.4,0.2-0.6,0.3c-0.2,0.1-0.4,0.2-0.6,0.3c-0.2,0.1-0.4,0.2-0.5,0.3c-0.2,0.1-0.4,0.2-0.6,0.4c-0.2,0.1-0.4,0.3-0.6,0.4
	c-0.2,0.1-0.3,0.2-0.5,0.4c-0.3,0.3-0.7,0.6-1,0.9L190.5,123.1c-0.3,0.3-0.6,0.6-0.9,1c-0.1,0.2-0.2,0.3-0.4,0.5
	c-0.1,0.2-0.3,0.4-0.4,0.6c-0.1,0.2-0.2,0.4-0.4,0.6c-0.1,0.2-0.2,0.4-0.3,0.5c-0.1,0.2-0.2,0.4-0.3,0.6c-0.1,0.2-0.2,0.4-0.3,0.6
	c-0.1,0.2-0.1,0.4-0.2,0.6c-0.1,0.2-0.2,0.4-0.2,0.6c-0.1,0.2-0.1,0.4-0.2,0.6c-0.1,0.2-0.1,0.4-0.2,0.7c0,0.2-0.1,0.5-0.1,0.7
	c0,0.2-0.1,0.4-0.1,0.6c0,0.4-0.1,0.9-0.1,1.3c0,0,0,0,0,0v67.1H35.8C16,199.8,0,215.8,0,235.6v380c0,19.8,16,35.8,35.8,35.8h150.7
	v214.6c0,39,31.7,70.8,70.8,70.8h426.5c39,0,70.8-31.7,70.8-70.8V651.5h150.8c19.8,0,35.8-16,35.8-35.8v-380
	C941.3,215.8,925.2,199.8,905.4,199.8z M305.7,46.1v73h-73L305.7,46.1z M213.6,146.1h105.6c7.5,0,13.5-6,13.5-13.5V27h394.9v172.8
	H213.6V146.1z M95.7,342.3c-20.8,0-37.7-16.9-37.7-37.7s16.9-37.7,37.7-37.7s37.7,16.9,37.7,37.7S116.5,342.3,95.7,342.3z
	 M171.2,304.6c0-20.8,16.9-37.7,37.7-37.7s37.7,16.9,37.7,37.7s-16.9,37.7-37.7,37.7S171.2,325.4,171.2,304.6z M683.9,909.9H257.3
	c-24.1,0-43.8-19.6-43.8-43.8V515.8h514.1v350.3C727.6,890.2,708,909.9,683.9,909.9z"/>
</svg>
